# xmcd
#
# Track frame offsets: 
#        150
#        28431
#        46338
#        67778
#        83726
#        110428
#        135041
#        169911
#        192962
#        209076
#        226444
#        243676
#        261118
#        272523
#        288021
#        303048
#        314973
#
# Disc length: 4433 seconds
#
# Revision: 0
# Processed by: cddbd v1.5.2PL0 Copyright (c) Steve Scherf et al.
# Submitted via: ExactAudioCopy v0.99pb5
#
DISCID=f2114f11
DTITLE=Eddie Kendricks - The Thin Man (The Motown Solo Albums, Vol. 2)
DTITLE=Various Artist - CD 3
DYEAR=2006
DGENRE=R&B
TTITLE0=Something Shady (Is Going On)
TTITLE1=Baby
TTITLE2=I Want To Live (My Life With You)
TTITLE3=You Got It
TTITLE4=Intimate Friends
TTITLE5=Diamong Girls
TTITLE6=Then Came You
TTITLE7=I'll Have To Let You Go
TTITLE8=California Woman
TTITLE9=Let Now Be Now, Let Love Be Love
TTITLE10=I Need You More Now Than Ever
TTITLE11=That's All Behind You
TTITLE12=Go On With Your Bad Self
TTITLE13=Johnny Faraway
TTITLE14=If I Can't Love You Then I Can't Love Me
TTITLE15=Nothning Is Real
TTITLE16=I'll Be Your Servant
EXTD=
EXTT0=
EXTT1=
EXTT2=
EXTT3=
EXTT4=
EXTT5=
EXTT6=
EXTT7=
EXTT8=
EXTT9=
EXTT10=
EXTT11=
EXTT12=
EXTT13=
EXTT14=
EXTT15=
EXTT16=
PLAYORDER=
